<?xml version="1.0" encoding="utf-8"?>
<svg id="master-artboard" viewBox="0 0 1096 780" version="1.1" xmlns="http://www.w3.org/2000/svg" x="0px" y="0px" style="enable-background:new 0 0 1096 780;" width="1096px" height="780px" xmlns:xlink="http://www.w3.org/1999/xlink">

































































<path class="st8" d="M231.2,725.6h-9.4c-27.2,0-49.3-22.1-49.3-49.3v-9.4c0-27.2,22.1-49.3,49.3-49.3h9.4&#10;&#9;c27.2,0,49.3,22.1,49.3,49.3v9.4C280.5,703.5,258.5,725.6,231.2,725.6z" style="fill: rgb(0, 154, 218);" transform="matrix(4.505041122436523, 0, 0, 4.505041122436523, -458.90795437773426, -2656.5219529269903)"/><g transform="matrix(4.505041122436523, 0, 0, 4.505041122436523, -458.90795437773426, -2656.5219529269903)">
	<defs>
		<path id="SVGID_11_" d="M231.2,725.6h-9.4c-27.2,0-49.3-22.1-49.3-49.3v-9.4c0-27.2,22.1-49.3,49.3-49.3h9.4&#10;&#9;&#9;&#9;c27.2,0,49.3,22.1,49.3,49.3v9.4C280.5,703.5,258.5,725.6,231.2,725.6z"/>
	</defs>
	<use style="overflow:visible;fill:#009ADA;" xlink:href="#SVGID_11_"/>
	<clipPath id="SVGID_12_">
		<use style="overflow:visible;" xlink:href="#SVGID_11_"/>
	</clipPath>
	<path d="M 195.10000610351562 639.7999877929688 L 168.60000610351562 666.2000122070312 L 168.60000610351562 708.2000122070312 L 214.10000610351562 732.7999877929688 L 229.3000030517578 732.0999755859375 L 259.5 701.9000244140625 L 264.79998779296875 676.5999755859375 L 259.70001220703125 655.7999877929688 L 256.6000061035156 643.5999755859375 L 244.5 642.5999755859375 Z" class="st10" style="opacity: 0.4; clip-path: url('#SVGID_12_'); fill: rgb(33, 25, 21);"/>
</g><path class="st4" d="M233.3,629.6h-13.5c-19.5,0-35.2,15.8-35.2,35.2v13.5c0,19.5,15.8,35.2,35.2,35.2h13.5&#10;&#9;c19.5,0,35.2-15.8,35.2-35.2v-13.5C268.5,645.4,252.7,629.6,233.3,629.6z M256.6,686h-7.7v7.8h-8.1v8.1h-28.5v-8.1h-8.1V686h-7.7&#10;&#9;v-39.4h60.1V686z" style="fill: rgb(255, 255, 255);" transform="matrix(4.505041122436523, 0, 0, 4.505041122436523, -458.90795437773426, -2656.5219529269903)"/><g transform="matrix(4.505041122436523, 0, 0, 4.505041122436523, -458.90795437773426, -2656.5219529269903)">
	<path d="M 232.199997 650.700012 H 236.599997 V 660.900012 H 232.199997 V 650.700012 Z" class="st4" style="fill: rgb(255, 255, 255);"/>
	<path d="M 224.300003 650.700012 H 228.700003 V 660.900012 H 224.300003 V 650.700012 Z" class="st4" style="fill: rgb(255, 255, 255);"/>
	<path d="M 248 650.700012 H 252.4 V 660.900012 H 248 V 650.700012 Z" class="st4" style="fill: rgb(255, 255, 255);"/>
	<path d="M 240.100006 650.700012 H 244.500006 V 660.900012 H 240.100006 V 650.700012 Z" class="st4" style="fill: rgb(255, 255, 255);"/>
	<path d="M 216.5 650.700012 H 220.9 V 660.900012 H 216.5 V 650.700012 Z" class="st4" style="fill: rgb(255, 255, 255);"/>
	<path d="M 208.600006 650.700012 H 213.000006 V 660.900012 H 208.600006 V 650.700012 Z" class="st4" style="fill: rgb(255, 255, 255);"/>
	<path d="M 200.699997 650.700012 H 205.099997 V 660.900012 H 200.699997 V 650.700012 Z" class="st4" style="fill: rgb(255, 255, 255);"/>
</g></svg>