<?xml version="1.0" encoding="utf-8"?>
<svg id="master-artboard" viewBox="0 0 1096 780" version="1.1" xmlns="http://www.w3.org/2000/svg" x="0px" y="0px" style="enable-background:new 0 0 1096 780;" width="1096px" height="780px" xmlns:xlink="http://www.w3.org/1999/xlink">
































<path class="st14" d="M489.9,725.6h-9.4c-27.2,0-49.3-22.1-49.3-49.3v-9.4c0-27.2,22.1-49.3,49.3-49.3h9.4&#10;&#9;c27.2,0,49.3,22.1,49.3,49.3v9.4C539.2,703.5,517.1,725.6,489.9,725.6z" style="fill: rgb(123, 5, 126);" transform="matrix(5.036608695983887, 0, 0, 5.036608695983887, -1908.553569528737, -3020.220517651076)"/>
<g transform="matrix(5.036608695983887, 0, 0, 5.036608695983887, -1908.553569528737, -3020.220517651076)">
	<defs>
		<path id="SVGID_19_" d="M489.9,725.6h-9.4c-27.2,0-49.3-22.1-49.3-49.3v-9.4c0-27.2,22.1-49.3,49.3-49.3h9.4&#10;&#9;&#9;&#9;c27.2,0,49.3,22.1,49.3,49.3v9.4C539.2,703.5,517.1,725.6,489.9,725.6z"/>
	</defs>
	<use style="overflow:visible;fill:#7B057E;" xlink:href="#SVGID_19_"/>
	<clipPath id="SVGID_20_">
		<use style="overflow:visible;" xlink:href="#SVGID_19_"/>
	</clipPath>
	<path d="M 453.70001220703125 639.7999877929688 L 427.29998779296875 666.2000122070312 L 427.29998779296875 708.2000122070312 L 472.79998779296875 732.7999877929688 L 487.8999938964844 732.0999755859375 L 518.0999755859375 701.9000244140625 L 523.4000244140625 676.5999755859375 L 518.4000244140625 655.7999877929688 L 515.2000122070312 643.5999755859375 L 503.20001220703125 642.5999755859375 Z" class="st16" style="opacity: 0.4; clip-path: url('#SVGID_20_'); fill: rgb(33, 25, 21);"/>
</g>
<path class="st4" d="M492,629.6h-13.5c-19.5,0-35.2,15.8-35.2,35.2v13.5c0,19.5,15.8,35.2,35.2,35.2H492c19.5,0,35.2-15.8,35.2-35.2&#10;&#9;v-13.5C527.2,645.4,511.4,629.6,492,629.6z M515.2,686h-7.7v7.8h-8.1v8.1H471v-8.1h-8.1V686h-7.7v-39.4h60.1V686z" style="fill: rgb(255, 255, 255);" transform="matrix(5.036608695983887, 0, 0, 5.036608695983887, -1908.553569528737, -3020.220517651076)"/>
<g transform="matrix(5.036608695983887, 0, 0, 5.036608695983887, -1908.553569528737, -3020.220517651076)">
	<path d="M 490.899994 650.700012 H 495.299994 V 660.900012 H 490.899994 V 650.700012 Z" class="st4" style="fill: rgb(255, 255, 255);"/>
	<path d="M 483 650.700012 H 487.4 V 660.900012 H 483 V 650.700012 Z" class="st4" style="fill: rgb(255, 255, 255);"/>
	<path d="M 506.700012 650.700012 H 511.100012 V 660.900012 H 506.700012 V 650.700012 Z" class="st4" style="fill: rgb(255, 255, 255);"/>
	<path d="M 498.799988 650.700012 H 503.199988 V 660.900012 H 498.799988 V 650.700012 Z" class="st4" style="fill: rgb(255, 255, 255);"/>
	<path d="M 475.100006 650.700012 H 479.500006 V 660.900012 H 475.100006 V 650.700012 Z" class="st4" style="fill: rgb(255, 255, 255);"/>
	<path d="M 467.200012 650.700012 H 471.600012 V 660.900012 H 467.200012 V 650.700012 Z" class="st4" style="fill: rgb(255, 255, 255);"/>
	<path d="M 459.399994 650.700012 H 463.799994 V 660.900012 H 459.399994 V 650.700012 Z" class="st4" style="fill: rgb(255, 255, 255);"/>
</g>





























</svg>