<svg enable-background="new 0 0 236.1 256" viewBox="0 0 236.1 256" xmlns="http://www.w3.org/2000/svg"><g fill="#5bbdbf"><path d="m219.3 12.6c2.5 0 4.1 1.6 4.1 4.1v45.3c0 2.5-1.6 4.1-4.1 4.1h-202.5c-2.5 0-4.1-1.6-4.1-4.1v-45.2c0-2.5 1.6-4.1 4.1-4.1h202.5m0-12.7h-202.5c-9.5 0-16.8 7.3-16.8 16.8v45.3c0 9.5 7.3 16.8 16.8 16.8h202.5c9.5 0 16.8-7.3 16.8-16.8v-45.3c0-9.5-7.3-16.8-16.8-16.8z"/><path d="m51.5 33.4c3.1 0 5.3 2.2 5.3 5.3s-2.2 5.3-5.3 5.3-5.3-2.8-5.3-5.3c0-3.2 2.2-5.3 5.3-5.3m0-12.7c-10.1 0-17.9 7.8-17.9 17.9 0 9.5 7.8 17.9 17.9 17.9s17.9-7.8 17.9-17.9-7.8-17.9-17.9-17.9z"/><path d="m147.7 24.1h-7.8c-3.4 0-5.6 2.2-5.6 5.6s2.8 5.6 5.6 5.6h7.8c3.4 0 5.6-2.2 5.6-5.6s-2.3-5.6-5.6-5.6z"/><path d="m172.3 24.1h-7.8c-3.4 0-5.6 2.2-5.6 5.6s2.8 5.6 5.6 5.6h7.8c3.4 0 5.6-2.2 5.6-5.6s-2.2-5.6-5.6-5.6z"/><path d="m196.9 24.1h-7.8c-3.4 0-5.6 2.2-5.6 5.6s2.2 5.6 5.6 5.6h7.8c3.4 0 5.6-2.2 5.6-5.6s-2.2-5.6-5.6-5.6z"/><path d="m147.7 43.7h-7.8c-3.4 0-5.6 2.2-5.6 5.6s2.8 5.6 5.6 5.6h7.8c3.4 0 5.6-2.2 5.6-5.6s-2.3-5.6-5.6-5.6z"/><path d="m172.3 43.7h-7.8c-3.4 0-5.6 2.2-5.6 5.6s2.8 5.6 5.6 5.6h7.8c3.4 0 5.6-2.2 5.6-5.6s-2.2-5.6-5.6-5.6z"/><path d="m196.9 43.7h-7.8c-3.4 0-5.6 2.2-5.6 5.6s2.2 5.6 5.6 5.6h7.8c3.4 0 5.6-2.2 5.6-5.6s-2.2-5.6-5.6-5.6z"/><path d="m219.3 101.2c2.5 0 4.1 1.6 4.1 4.1v45.3c0 2.5-1.6 4.1-4.1 4.1h-202.5c-2.5 0-4.1-1.6-4.1-4.1v-45.3c0-2.5 1.6-4.1 4.1-4.1zm0-12.7h-202.5c-9.5 0-16.8 7.3-16.8 16.8v45.3c0 9.5 7.3 16.8 16.8 16.8h202.5c9.5 0 16.8-7.3 16.8-16.8v-45.3c0-9.5-7.3-16.8-16.8-16.8z"/><path d="m51.5 121.9c3.1 0 5.3 2.2 5.3 5.3s-2.2 5.3-5.3 5.3-5.3-2.8-5.3-5.3c0-3.1 2.2-5.3 5.3-5.3m0-12.7c-10.1 0-17.9 7.8-17.9 17.9 0 9.5 7.8 17.9 17.9 17.9s17.9-7.8 17.9-17.9c0-10-7.8-17.9-17.9-17.9z"/><path d="m147.7 112.6h-7.8c-3.4 0-5.6 2.2-5.6 5.6s2.8 5.6 5.6 5.6h7.8c3.4 0 5.6-2.2 5.6-5.6s-2.3-5.6-5.6-5.6z"/><path d="m172.3 112.6h-7.8c-3.4 0-5.6 2.2-5.6 5.6s2.8 5.6 5.6 5.6h7.8c3.4 0 5.6-2.2 5.6-5.6s-2.2-5.6-5.6-5.6z"/><path d="m196.9 112.6h-7.8c-3.4 0-5.6 2.2-5.6 5.6s2.2 5.6 5.6 5.6h7.8c3.4 0 5.6-2.2 5.6-5.6s-2.2-5.6-5.6-5.6z"/><path d="m147.7 132.2h-7.8c-3.4 0-5.6 2.2-5.6 5.6s2.8 5.6 5.6 5.6h7.8c3.4 0 5.6-2.2 5.6-5.6s-2.3-5.6-5.6-5.6z"/><path d="m172.3 132.2h-7.8c-3.4 0-5.6 2.2-5.6 5.6s2.8 5.6 5.6 5.6h7.8c3.4 0 5.6-2.2 5.6-5.6s-2.2-5.6-5.6-5.6z"/><path d="m196.9 132.2h-7.8c-3.4 0-5.6 2.2-5.6 5.6s2.2 5.6 5.6 5.6h7.8c3.4 0 5.6-2.2 5.6-5.6s-2.2-5.6-5.6-5.6z"/><path d="m219.3 189.7c2.5 0 4.1 1.6 4.1 4.1v45.3c0 2.5-1.6 4.1-4.1 4.1h-202.5c-2.5 0-4.1-1.6-4.1-4.1v-45.3c0-2.5 1.6-4.1 4.1-4.1zm0-12.6h-202.5c-9.5 0-16.8 7.3-16.8 16.8v45.3c0 9.5 7.3 16.8 16.8 16.8h202.5c9.5 0 16.8-7.3 16.8-16.8v-45.3c0-9.5-7.3-16.8-16.8-16.8z"/><path d="m51.5 210.4c3.1 0 5.3 2.2 5.3 5.3s-2.2 5.3-5.3 5.3-5.3-2.8-5.3-5.3c0-3.1 2.2-5.3 5.3-5.3m0-12.6c-10.1 0-17.9 7.8-17.9 17.9 0 9.5 7.8 17.9 17.9 17.9s17.9-7.8 17.9-17.9-7.8-17.9-17.9-17.9z"/><path d="m147.7 201.1h-7.8c-3.4 0-5.6 2.2-5.6 5.6s2.8 5.6 5.6 5.6h7.8c3.4 0 5.6-2.2 5.6-5.6 0-3.3-2.3-5.6-5.6-5.6z"/><path d="m172.3 201.1h-7.8c-3.4 0-5.6 2.2-5.6 5.6s2.8 5.6 5.6 5.6h7.8c3.4 0 5.6-2.2 5.6-5.6 0-3.3-2.2-5.6-5.6-5.6z"/><path d="m196.9 201.1h-7.8c-3.4 0-5.6 2.2-5.6 5.6s2.2 5.6 5.6 5.6h7.8c3.4 0 5.6-2.2 5.6-5.6 0-3.3-2.2-5.6-5.6-5.6z"/><path d="m147.7 220.7h-7.8c-3.4 0-5.6 2.2-5.6 5.6s2.8 5.6 5.6 5.6h7.8c3.4 0 5.6-2.2 5.6-5.6 0-3.3-2.3-5.6-5.6-5.6z"/><path d="m172.3 220.7h-7.8c-3.4 0-5.6 2.2-5.6 5.6s2.8 5.6 5.6 5.6h7.8c3.4 0 5.6-2.2 5.6-5.6 0-3.3-2.2-5.6-5.6-5.6z"/><path d="m196.9 220.7h-7.8c-3.4 0-5.6 2.2-5.6 5.6s2.2 5.6 5.6 5.6h7.8c3.4 0 5.6-2.2 5.6-5.6 0-3.3-2.2-5.6-5.6-5.6z"/></g></svg>